<svg width="1280" height="185" viewBox="0 0 1280 185" fill="none" xmlns="http://www.w3.org/2000/svg">
<path d="M1201.59 0C1213.44 0 1224.17 1.55759 1233.79 4.67278C1243.55 7.78798 1251.84 12.2484 1258.67 18.054C1265.5 23.7179 1270.73 30.5855 1274.35 38.6567C1278.12 46.7279 1280 55.7903 1280 65.8439V119.156C1280 129.21 1278.12 138.272 1274.35 146.343C1270.73 154.414 1265.5 161.282 1258.67 166.946C1251.84 172.752 1243.55 177.212 1233.79 180.327C1224.17 183.442 1213.44 185 1201.59 185C1189.74 185 1178.94 183.442 1169.18 180.327C1159.56 177.212 1151.34 172.752 1144.51 166.946C1137.68 161.282 1132.38 154.414 1128.62 146.343C1124.99 138.272 1123.18 129.21 1123.18 119.156V65.8439C1123.18 55.7903 1124.99 46.7279 1128.62 38.6567C1132.38 30.5855 1137.68 23.7179 1144.51 18.054C1151.34 12.2484 1159.56 7.78798 1169.18 4.67278C1178.94 1.55759 1189.74 0 1201.59 0ZM1129.04 92.3938C1135.03 92.3938 1140.95 93.4558 1146.81 95.5798C1152.8 97.7038 1158.45 100.748 1163.74 104.713C1169.18 108.536 1174.2 113.138 1178.8 118.519C1183.4 123.9 1187.37 129.847 1190.72 136.361C1194.2 142.874 1196.85 149.812 1198.66 157.176C1200.61 164.539 1201.59 172.114 1201.59 179.902C1201.59 168.15 1203.68 156.963 1207.86 146.343C1212.05 135.723 1217.48 126.449 1224.17 118.519C1231 110.448 1238.74 104.076 1247.38 99.403C1256.16 94.5886 1265.08 92.1814 1274.15 92.1814C1265.08 92.1814 1256.16 89.845 1247.38 85.1722C1238.74 80.3578 1231 73.9858 1224.17 66.0563C1217.48 57.9851 1212.05 48.6395 1207.86 38.0195C1203.68 27.3995 1201.59 16.2132 1201.59 4.46038C1201.59 16.2132 1199.5 27.3995 1195.32 38.0195C1191.14 48.6395 1185.63 57.9851 1178.8 66.0563C1172.11 74.1274 1164.37 80.5702 1155.59 85.3846C1146.95 90.0574 1138.1 92.3938 1129.04 92.3938Z" fill="white"/>
<path d="M1105.45 182.239H1063.63V2.54883H1105.45V182.239Z" fill="white"/>
<path d="M935.399 2.54883H977.217V151.866C983.63 151.724 990.111 151.441 996.663 151.016C1003.35 150.45 1009.91 149.671 1016.32 148.68C1022.73 147.547 1028.86 146.202 1034.72 144.644C1040.57 143.087 1046.01 141.104 1051.03 138.697V182.239H935.399V2.54883Z" fill="white"/>
<path d="M839.152 0C851 0 861.733 1.55759 871.352 4.67278C881.109 7.78798 889.403 12.2484 896.234 18.054C903.064 23.7179 908.291 30.5855 911.915 38.6567C915.679 46.7279 917.561 55.7903 917.561 65.8439V119.156C917.561 129.21 915.679 138.272 911.915 146.343C908.291 154.414 903.064 161.282 896.234 166.946C889.403 172.752 881.109 177.212 871.352 180.327C861.733 183.442 851 185 839.152 185C827.303 185 816.5 183.442 806.742 180.327C797.124 177.212 788.9 172.752 782.07 166.946C775.239 161.282 769.942 154.414 766.179 146.343C762.554 138.272 760.742 129.21 760.742 119.156V65.8439C760.742 55.7903 762.554 46.7279 766.179 38.6567C769.942 30.5855 775.239 23.7179 782.07 18.054C788.9 12.2484 797.124 7.78798 806.742 4.67278C816.5 1.55759 827.303 0 839.152 0ZM766.597 92.3938C772.591 92.3938 778.515 93.4558 784.37 95.5798C790.364 97.7038 796.009 100.748 801.306 104.713C806.742 108.536 811.761 113.138 816.361 118.519C820.961 123.9 824.933 129.847 828.279 136.361C831.764 142.874 834.412 149.812 836.224 157.176C838.176 164.539 839.152 172.114 839.152 179.902C839.152 168.15 841.242 156.963 845.424 146.343C849.606 135.723 855.043 126.449 861.733 118.519C868.564 110.448 876.3 104.076 884.943 99.403C893.724 94.5886 902.646 92.1814 911.706 92.1814C902.646 92.1814 893.724 89.845 884.943 85.1722C876.3 80.3578 868.564 73.9858 861.733 66.0563C855.043 57.9851 849.606 48.6395 845.424 38.0195C841.242 27.3995 839.152 16.2132 839.152 4.46038C839.152 16.2132 837.061 27.3995 832.879 38.0195C828.697 48.6395 823.191 57.9851 816.361 66.0563C809.67 74.1274 801.933 80.5702 793.151 85.3846C784.509 90.0574 775.657 92.3938 766.597 92.3938Z" fill="white"/>
<path d="M751.314 36.5328H675.832V81.9863H746.086V117.032H675.832V182.239H634.013V2.54883H751.314V36.5328Z" fill="white"/>
<path d="M569.85 182.239H528.031V36.5328H476.386V2.54883H621.495V36.5328H569.85V182.239Z" fill="white"/>
<path d="M328.748 182.239V2.54883H407.157C416.775 2.54883 425.487 4.03563 433.293 7.00923C441.239 9.84122 447.999 13.9476 453.575 19.3284C459.151 24.7092 463.472 31.2228 466.539 38.8692C469.606 46.5155 471.139 55.0823 471.139 64.5695C471.139 77.3135 468.281 88.1458 462.566 97.0666C456.851 105.987 449.184 112.784 439.566 117.457L478.457 182.239H432.457L397.539 124.254H370.566V182.239H328.748ZM399.211 9.34561C399.211 17.1336 397.539 24.2844 394.193 30.798C390.987 37.3116 386.736 42.9755 381.439 47.7899C376.142 52.4627 370.148 56.1443 363.457 58.8347C356.905 61.5251 350.214 63.0119 343.384 63.2951C350.214 63.5783 356.905 65.2067 363.457 68.1803C370.148 71.1539 376.142 75.0479 381.439 79.8623C386.736 84.6767 390.987 90.3406 394.193 96.8542C397.539 103.226 399.211 110.023 399.211 117.245C399.211 110.023 400.814 103.226 404.021 96.8542C407.366 90.3406 411.687 84.6767 416.984 79.8623C422.281 74.9063 428.205 70.9415 434.757 67.9679C441.448 64.9943 448.209 63.3659 455.039 63.0827C448.209 62.7995 441.448 61.3127 434.757 58.6223C428.205 55.9319 422.281 52.2503 416.984 47.5775C411.687 42.9047 407.366 37.3116 404.021 30.798C400.814 24.2844 399.211 17.1336 399.211 9.34561Z" fill="white"/>
<path d="M232.5 0C244.349 0 255.082 1.55759 264.7 4.67278C274.458 7.78798 282.752 12.2484 289.582 18.054C296.412 23.7179 301.64 30.5855 305.264 38.6567C309.028 46.7279 310.909 55.7903 310.909 65.8439V119.156C310.909 129.21 309.028 138.272 305.264 146.343C301.64 154.414 296.412 161.282 289.582 166.946C282.752 172.752 274.458 177.212 264.7 180.327C255.082 183.442 244.349 185 232.5 185C220.652 185 209.849 183.442 200.091 180.327C190.473 177.212 182.248 172.752 175.418 166.946C168.588 161.282 163.291 154.414 159.527 146.343C155.903 138.272 154.091 129.21 154.091 119.156V65.8439C154.091 55.7903 155.903 46.7279 159.527 38.6567C163.291 30.5855 168.588 23.7179 175.418 18.054C182.248 12.2484 190.473 7.78798 200.091 4.67278C209.849 1.55759 220.652 0 232.5 0ZM159.945 92.3938C165.939 92.3938 171.864 93.4558 177.718 95.5798C183.712 97.7038 189.358 100.748 194.655 104.713C200.091 108.536 205.109 113.138 209.709 118.519C214.309 123.9 218.282 129.847 221.627 136.361C225.112 142.874 227.761 149.812 229.573 157.176C231.524 164.539 232.5 172.114 232.5 179.902C232.5 168.15 234.591 156.963 238.773 146.343C242.955 135.723 248.391 126.449 255.082 118.519C261.912 110.448 269.649 104.076 278.291 99.403C287.073 94.5886 295.994 92.1814 305.055 92.1814C295.994 92.1814 287.073 89.845 278.291 85.1722C269.649 80.3578 261.912 73.9858 255.082 66.0563C248.391 57.9851 242.955 48.6395 238.773 38.0195C234.591 27.3995 232.5 16.2132 232.5 4.46038C232.5 16.2132 230.409 27.3995 226.227 38.0195C222.046 48.6395 216.539 57.9851 209.709 66.0563C203.018 74.1274 195.282 80.5702 186.5 85.3846C177.857 90.0574 169.006 92.3938 159.945 92.3938Z" fill="white"/>
<path d="M0 182.239V2.54883H78.4093C88.0276 2.54883 96.8094 4.10642 104.755 7.22162C112.7 10.3368 119.461 14.7264 125.037 20.3904C130.613 26.0544 134.934 32.8512 138 40.7807C141.067 48.5687 142.6 57.2063 142.6 66.6935C142.6 76.0391 140.928 84.535 137.582 92.1814C134.376 99.8278 129.916 106.341 124.2 111.722C118.485 117.103 111.725 121.28 103.919 124.254C96.1124 127.086 87.6094 128.502 78.4093 128.502H41.8183V182.239H0ZM70.4639 9.34561C70.4639 17.1336 68.7911 24.426 65.4457 31.2228C62.2396 37.878 57.9881 43.7543 52.6911 48.8519C47.3941 53.8079 41.4001 57.7727 34.7092 60.7463C28.1577 63.5783 21.4667 65.1359 14.6364 65.4191C21.4667 65.7023 28.1577 67.4723 34.7092 70.7291C41.4001 73.8443 47.3941 77.9507 52.6911 83.0483C57.9881 88.1458 62.2396 94.0222 65.4457 100.677C68.7911 107.333 70.4639 114.271 70.4639 121.493C70.4639 114.271 72.0669 107.333 75.273 100.677C78.6184 94.0222 82.9397 88.1458 88.2367 83.0483C93.5336 77.8091 99.4579 73.6319 106.009 70.5167C112.7 67.2599 119.461 65.4899 126.291 65.2067C119.461 64.9235 112.7 63.3659 106.009 60.5339C99.4579 57.5603 93.5336 53.5955 88.2367 48.6395C82.9397 43.6835 78.6184 37.878 75.273 31.2228C72.0669 24.426 70.4639 17.1336 70.4639 9.34561Z" fill="white"/>
</svg>
