<svg width="1280" height="185" viewBox="0 0 1280 185" fill="none" xmlns="http://www.w3.org/2000/svg">
<path d="M1130.18 182.242V2.75781H1208.65C1218.27 2.75781 1226.99 4.24291 1234.8 7.2131C1242.76 10.0418 1249.52 14.1435 1255.1 19.5181C1260.68 24.8928 1265 31.3989 1268.07 39.0365C1271.14 46.6741 1272.68 55.2311 1272.68 64.7074C1272.68 77.4367 1269.82 88.2567 1264.1 97.1672C1258.38 106.078 1250.71 112.867 1241.08 117.534L1280 182.242H1233.97L1199.02 124.323H1172.03V182.242H1130.18ZM1200.7 9.5468C1200.7 17.3259 1199.02 24.4684 1195.68 30.9746C1192.47 37.4807 1188.21 43.1382 1182.91 47.947C1177.61 52.6145 1171.61 56.2918 1164.92 58.9791C1158.36 61.6665 1151.67 63.1516 1144.83 63.4344C1151.67 63.7173 1158.36 65.3438 1164.92 68.314C1171.61 71.2842 1177.61 75.1737 1182.91 79.9826C1188.21 84.7915 1192.47 90.4489 1195.68 96.9551C1199.02 103.32 1200.7 110.109 1200.7 117.322C1200.7 110.109 1202.3 103.32 1205.51 96.9551C1208.86 90.4489 1213.18 84.7915 1218.48 79.9826C1223.78 75.0323 1229.71 71.072 1236.27 68.1018C1242.96 65.1317 1249.73 63.5051 1256.57 63.2223C1249.73 62.9394 1242.96 61.4543 1236.27 58.767C1229.71 56.0797 1223.78 52.4023 1218.48 47.7349C1213.18 43.0674 1208.86 37.4807 1205.51 30.9746C1202.3 24.4684 1200.7 17.3259 1200.7 9.5468Z" fill="white"/>
<path d="M992.257 182.242V2.75781H1113.41V36.7028H1034.1V73.8301H1111.31V108.199H1034.1V152.54C1041.78 152.54 1049.03 152.328 1055.87 151.903C1062.84 151.338 1069.47 150.56 1075.74 149.57C1082.16 148.58 1088.44 147.307 1094.58 145.751C1100.85 144.054 1107.13 142.074 1113.41 139.811V182.242H992.257Z" fill="white"/>
<path d="M929.506 182.242V108.624H867.571V182.242H825.723V2.75781H867.571V74.6787H929.506V2.75781H971.354V182.242H929.506Z" fill="white"/>
<path d="M739.826 185C729.364 185 719.67 183.656 710.742 180.969C701.814 178.282 694.073 174.392 687.516 169.3C681.1 164.209 676.078 158.056 672.451 150.843C668.824 143.488 667.011 135.214 667.011 126.021H709.487C709.487 129.557 710.254 132.81 711.788 135.78C713.462 138.75 715.694 141.296 718.484 143.417C721.274 145.539 724.552 147.166 728.318 148.297C732.085 149.429 736.06 149.994 740.245 149.994C743.872 149.994 747.22 149.499 750.288 148.509C753.357 147.519 756.008 146.246 758.24 144.69C760.611 142.993 762.424 141.084 763.68 138.962C764.935 136.841 765.563 134.578 765.563 132.173C765.563 130.193 764.935 128.354 763.68 126.657C762.564 124.96 761.099 123.404 759.286 121.99C757.472 120.434 755.38 119.09 753.009 117.959C750.777 116.686 748.615 115.625 746.522 114.776L703.419 96.7431C694.212 92.7829 686.889 87.3375 681.448 80.4071C676.008 73.4767 673.288 64.0004 673.288 51.9782C673.288 44.0577 674.962 36.9151 678.31 30.5505C681.797 24.1858 686.47 18.7404 692.329 14.2145C698.327 9.68846 705.372 6.22324 713.462 3.81881C721.692 1.27294 730.62 0 740.245 0C748.894 0 757.054 1.34366 764.726 4.03097C772.398 6.57684 779.094 10.2542 784.813 15.0631C790.532 19.7305 794.996 25.388 798.204 32.0355C801.552 38.6831 803.226 46.0378 803.226 54.0998H763.889C763.889 51.4125 763.192 48.9373 761.797 46.6743C760.541 44.2699 758.798 42.219 756.566 40.5218C754.473 38.6831 751.962 37.2687 749.033 36.2787C746.243 35.2886 743.314 34.7936 740.245 34.7936C737.316 34.7936 734.526 35.1472 731.875 35.8544C729.225 36.5615 726.854 37.6223 724.761 39.0367C722.808 40.3096 721.204 41.9362 719.949 43.9163C718.693 45.755 718.065 47.8058 718.065 50.0688C718.065 52.1904 718.484 54.0291 719.321 55.5849C720.158 57.1407 721.413 58.555 723.087 59.828C724.761 61.1009 726.854 62.3739 729.364 63.6468C731.875 64.7783 734.805 66.0512 738.153 67.4656L780.628 85.2867C784.953 87.1254 788.858 89.3177 792.346 91.8635C795.973 94.4094 799.111 97.4503 801.762 100.986C804.412 104.381 806.435 108.341 807.83 112.867C809.364 117.252 810.131 122.273 810.131 127.93C810.131 135.002 808.457 142.003 805.109 148.933C801.762 155.722 797.019 161.804 790.881 167.179C784.883 172.554 777.49 176.867 768.702 180.12C760.053 183.373 750.428 185 739.826 185Z" fill="white"/>
<path d="M652.405 182.242H610.557V2.75781H652.405V182.242Z" fill="white"/>
<path d="M482.234 2.75781H524.082V151.903C530.498 151.762 536.985 151.479 543.541 151.055C550.237 150.489 556.793 149.711 563.21 148.721C569.626 147.59 575.764 146.246 581.623 144.69C587.481 143.134 592.922 141.154 597.943 138.75V182.242H482.234V2.75781Z" fill="white"/>
<path d="M398.86 2.75781C406.95 2.75781 414.483 3.67715 421.457 5.51584C428.572 7.21309 434.709 9.9004 439.871 13.5778C445.032 17.2551 449.077 21.9226 452.007 27.5801C454.936 33.0961 456.401 39.6022 456.401 47.0984C456.401 50.7758 455.843 54.4532 454.727 58.1305C453.611 61.8079 452.076 65.2731 450.123 68.5262C448.31 71.7792 446.078 74.8201 443.428 77.6489C440.917 80.3362 438.197 82.5285 435.267 84.2257C439.452 85.3572 443.358 87.3373 446.985 90.1661C450.612 92.9948 453.75 96.3186 456.401 100.137C459.19 103.956 461.353 108.199 462.887 112.867C464.561 117.393 465.398 121.989 465.398 126.657C465.398 135.567 463.864 143.488 460.795 150.418C457.726 157.349 453.402 163.148 447.822 167.815C442.242 172.483 435.477 176.019 427.525 178.423C419.574 180.969 410.786 182.242 401.161 182.242H320.604V2.75781H398.86ZM390.071 8.48602C389.792 14.5678 388.119 19.8717 385.05 24.3977C381.981 28.9237 378.005 32.7425 373.123 35.8541C368.241 38.9658 362.661 41.3702 356.384 43.0674C350.246 44.6233 343.899 45.4719 337.343 45.6133C343.899 45.7548 350.246 46.6034 356.384 48.1592C362.661 49.5736 368.241 51.7658 373.123 54.736C378.005 57.7062 381.981 61.525 385.05 66.1924C388.119 70.7184 389.792 76.1638 390.071 82.5285C390.35 76.1638 392.024 70.7184 395.093 66.1924C398.162 61.525 402.138 57.7062 407.02 54.736C411.902 51.7658 417.412 49.5736 423.55 48.1592C429.827 46.6034 436.244 45.7548 442.8 45.6133C436.244 45.4719 429.827 44.6233 423.55 43.0674C417.412 41.3702 411.902 38.9658 407.02 35.8541C402.138 32.7425 398.162 28.9237 395.093 24.3977C392.024 19.8717 390.35 14.5678 390.071 8.48602ZM390.071 84.8622C390.071 92.2169 388.398 98.723 385.05 104.381C381.702 110.038 377.308 114.847 371.868 118.807C366.427 122.626 360.29 125.596 353.454 127.718C346.759 129.839 339.993 130.971 333.158 131.112C339.993 131.395 346.759 132.527 353.454 134.507C360.29 136.345 366.427 139.174 371.868 142.993C377.308 146.812 381.702 151.621 385.05 157.42C388.398 163.077 390.071 169.795 390.071 177.574C390.071 169.795 391.745 163.077 395.093 157.42C398.441 151.621 402.835 146.882 408.275 143.205C413.716 139.386 419.784 136.558 426.479 134.719C433.314 132.739 440.15 131.607 446.985 131.324C440.15 131.183 433.314 130.051 426.479 127.93C419.784 125.808 413.716 122.767 408.275 118.807C402.835 114.847 398.441 110.038 395.093 104.381C391.745 98.723 390.071 92.2169 390.071 84.8622Z" fill="white"/>
<path d="M301.715 2.75781V110.745C301.715 121.07 300.111 130.759 296.902 139.811C293.694 148.721 289.021 156.5 282.883 163.148C276.745 169.937 269.073 175.241 259.867 179.059C250.8 183.02 240.338 185 228.481 185C216.624 185 206.092 183.02 196.885 179.059C187.818 175.241 180.216 169.937 174.078 163.148C167.94 156.5 163.267 148.721 160.059 139.811C156.851 130.759 155.247 121.07 155.247 110.745V2.75781H197.095V110.745C197.095 123.475 199.815 133.375 205.255 140.447C210.695 147.519 218.437 151.055 228.481 151.055C238.524 151.055 246.266 147.519 251.706 140.447C257.147 133.375 259.867 123.475 259.867 110.745V2.75781H301.715Z" fill="white"/>
<path d="M0 182.242V2.75781H78.4651C88.0902 2.75781 96.8783 4.31362 104.829 7.42525C112.781 10.5369 119.546 14.9214 125.126 20.5789C130.705 26.2364 135.03 33.0254 138.099 40.9459C141.168 48.7249 142.702 57.3526 142.702 66.8289C142.702 76.1638 141.028 84.65 137.68 92.2876C134.472 99.9252 130.008 106.431 124.289 111.806C118.57 117.181 111.804 121.353 103.992 124.323C96.1808 127.152 87.6717 128.566 78.4651 128.566H41.8481V182.242H0ZM70.514 9.5468C70.514 17.3259 68.8401 24.6099 65.4922 31.3989C62.2839 38.0464 58.0293 43.9161 52.7286 49.0078C47.4278 53.9581 41.4296 57.9184 34.7339 60.8885C28.1777 63.7173 21.482 65.2731 14.6468 65.556C21.482 65.8389 28.1777 67.6068 34.7339 70.8599C41.4296 73.9715 47.4278 78.0732 52.7286 83.1649C58.0293 88.2567 62.2839 94.1263 65.4922 100.774C68.8401 107.421 70.514 114.352 70.514 121.565C70.514 114.352 72.1182 107.421 75.3265 100.774C78.6744 94.1263 82.9987 88.2567 88.2994 83.1649C93.6002 77.9317 99.5287 73.7593 106.085 70.6477C112.781 67.3947 119.546 65.6267 126.381 65.3438C119.546 65.061 112.781 63.5051 106.085 60.6764C99.5287 57.7062 93.6002 53.746 88.2994 48.7957C82.9987 43.8454 78.6744 38.0464 75.3265 31.3989C72.1182 24.6099 70.514 17.3259 70.514 9.5468Z" fill="white"/>
</svg>
