<svg width="1280" height="185" viewBox="0 0 1280 185" fill="none" xmlns="http://www.w3.org/2000/svg">
<path d="M1210.48 0C1218.93 0 1226.8 0.947596 1234.09 2.84279C1241.52 4.5922 1247.94 7.3621 1253.33 11.1525C1258.72 14.9429 1262.95 19.7537 1266.01 25.5851C1269.07 31.2707 1270.6 37.9768 1270.6 45.7033C1270.6 49.4937 1270.02 53.2841 1268.85 57.0745C1267.68 60.8649 1266.08 64.4366 1264.04 67.7896C1262.15 71.1426 1259.81 74.277 1257.04 77.1927C1254.42 79.9626 1251.58 82.2222 1248.52 83.9716C1252.89 85.1379 1256.97 87.1789 1260.76 90.0946C1264.55 93.0102 1267.83 96.4362 1270.6 100.372C1273.51 104.309 1275.77 108.682 1277.38 113.493C1279.13 118.158 1280 122.896 1280 127.707C1280 136.891 1278.4 145.055 1275.19 152.199C1271.98 159.342 1267.47 165.319 1261.64 170.13C1255.81 174.941 1248.74 178.585 1240.43 181.064C1232.12 183.688 1222.94 185 1212.88 185H1128.71V0H1210.48ZM1201.3 5.90425C1201.01 12.173 1199.26 17.6399 1196.05 22.305C1192.84 26.9701 1188.69 30.9062 1183.59 34.1135C1178.49 37.3207 1172.66 39.7991 1166.1 41.5485C1159.69 43.1521 1153.05 44.0268 1146.2 44.1726C1153.05 44.3184 1159.69 45.1931 1166.1 46.7967C1172.66 48.2545 1178.49 50.5142 1183.59 53.5757C1188.69 56.6371 1192.84 60.5733 1196.05 65.3842C1199.26 70.0492 1201.01 75.6619 1201.3 82.2222C1201.59 75.6619 1203.34 70.0492 1206.54 65.3842C1209.75 60.5733 1213.9 56.6371 1219 53.5757C1224.11 50.5142 1229.86 48.2545 1236.28 46.7967C1242.83 45.1931 1249.54 44.3184 1256.39 44.1726C1249.54 44.0268 1242.83 43.1521 1236.28 41.5485C1229.86 39.7991 1224.11 37.3207 1219 34.1135C1213.9 30.9062 1209.75 26.9701 1206.54 22.305C1203.34 17.6399 1201.59 12.173 1201.3 5.90425ZM1201.3 84.6277C1201.3 92.2084 1199.55 98.9145 1196.05 104.746C1192.55 110.577 1187.96 115.534 1182.28 119.616C1176.59 123.552 1170.18 126.613 1163.04 128.8C1156.04 130.987 1148.97 132.153 1141.83 132.299C1148.97 132.591 1156.04 133.757 1163.04 135.798C1170.18 137.693 1176.59 140.609 1182.28 144.545C1187.96 148.481 1192.55 153.438 1196.05 159.415C1199.55 165.246 1201.3 172.171 1201.3 180.189C1201.3 172.171 1203.05 165.246 1206.54 159.415C1210.04 153.438 1214.63 148.554 1220.32 144.764C1226 140.827 1232.34 137.912 1239.34 136.017C1246.48 133.976 1253.62 132.809 1260.76 132.518C1253.62 132.372 1246.48 131.206 1239.34 129.019C1232.34 126.832 1226 123.698 1220.32 119.616C1214.63 115.534 1210.04 110.577 1206.54 104.746C1203.05 98.9145 1201.3 92.2084 1201.3 84.6277Z" fill="white"/>
<path d="M242.524 185V0H1109.22V34.9882H286.248V73.2565H1107.03V108.682H286.248V154.385C294.264 154.385 1041.96 154.167 1049.1 153.729C1056.39 153.146 1063.31 152.344 1069.87 151.324C1076.57 150.303 1083.13 148.991 1089.54 147.388C1096.1 145.638 1102.66 143.597 1109.22 141.265V185H242.524Z" fill="white"/>
<path d="M192.168 185H133.577L116.525 85.065L114.557 73.4752C114.266 75.3704 113.974 77.2656 113.683 79.1607C113.391 81.0559 113.1 83.024 112.808 85.065L95.7559 185H37.1655L0 0H45.4731L62.7442 96.2175C64.0559 103.652 65.2947 110.942 66.4607 118.085C67.6267 125.229 68.7927 132.518 69.9587 139.953C70.9789 132.664 72.072 125.447 73.238 118.304C74.4039 111.015 75.5699 103.725 76.7359 96.4362L93.3511 0H135.982L152.597 96.4362C153.763 103.725 154.929 111.015 156.095 118.304C157.261 125.447 158.354 132.664 159.375 139.953C160.541 132.518 161.707 125.229 162.873 118.085C164.038 110.942 165.277 103.652 166.589 96.2175L183.86 0H229.333L192.168 185Z" fill="white"/>
</svg>
