<svg xmlns="http://www.w3.org/2000/svg" viewBox="0 0 1916.45 186.25"><defs><style>.cls-1{fill:#231f20;}</style></defs><g id="Layer_2" data-name="Layer 2"><g id="Layer_1-2" data-name="Layer 1"><path class="cls-1" d="M0,0H45.5L57.25,85c2.5,19.5,5,39,7.5,59h1c3.5-20,7.25-39.75,11-59l19-85H133.5l19.25,85c3.75,19,7,39,10.75,59h1.25c2.25-20,4.75-39.75,7-59L184,0h42.25L194,186.25H137.75l-16.75-81C118,91,115.5,76,113.75,62h-1c-2.5,14-4.75,29-7.5,43.25L89,186.25H33.75Z"/><path class="cls-1" d="M251.5,0h1665V37.25H296.25v34.5h1620.2v37.5H296.25v39.5h1620v37.5H251.5Z"/></g></g></svg>